<svg width="219" height="91" viewBox="0 0 219 91" fill="none" xmlns="http://www.w3.org/2000/svg">
<path d="M117.355 19.3729C120.231 17.6851 123.233 17.2168 126.38 17.2607C129.589 17.3071 132.802 17.2607 136.011 17.2607H137.387C137.414 17.6729 137.453 17.9485 137.448 18.2217C137.375 23.0118 137.543 27.8191 137.158 32.5824C136.726 37.8799 132.158 42.1603 126.846 42.714C124.65 42.9432 122.419 42.9579 120.068 43.0676C120.277 41.3238 120.392 39.8311 120.653 38.3628C120.929 36.8263 121.514 36.3994 123.046 36.2994C123.894 36.2458 124.753 36.1775 125.59 36.0799C128.253 35.7751 129.924 34.297 130.26 31.602C130.555 29.2386 130.563 26.8386 130.694 24.485C124.775 23.3509 120.207 25.863 118.29 30.6556C117.531 32.6188 117.108 34.6958 117.038 36.7994C116.855 41.5896 116.977 46.3895 116.968 51.1895C116.968 53.9919 115.836 55.2211 113.065 55.4089C112.065 55.4772 111.058 55.4089 109.921 55.4089V54.0382C109.921 50.4626 109.958 46.8871 109.902 43.3067C109.877 43.0518 109.796 42.8055 109.665 42.5851C109.535 42.3648 109.357 42.1757 109.146 42.0311C106.37 40.5165 103.536 39.1043 100.741 37.6263C96.1875 35.2263 92.9924 31.7239 92.1681 26.4923C91.6803 23.4143 91.7925 20.3216 93.1607 17.429C94.868 13.7998 96.7241 10.234 98.3948 6.58527C99.3484 4.50237 100.058 2.30728 100.941 0C100.744 0.0585357 100.831 0 100.892 0.0195119C107.568 2.2146 106.707 4.05848 104.741 8.50231C103.522 11.2437 101.992 13.8486 100.88 16.6266C100.133 18.5051 99.6608 20.4815 99.4777 22.4948C99.2338 25.2533 100.414 27.6435 102.3 29.641C104.056 31.502 106.273 32.6727 108.653 33.8239C109.948 31.1825 111.043 28.5703 111.178 25.6996C111.253 24.0801 110.417 22.7411 109.141 21.7216C108.221 20.9899 107.278 20.2802 106.373 19.5265C104.465 17.9339 104.207 16.5997 105.397 14.4047C105.792 13.673 106.304 12.9998 106.831 12.1949C110.126 15.0412 114.843 15.451 117.355 19.3729Z" fill="#719327"/>
<path d="M18.4277 78.998H13.8522C14.1741 77.3809 14.4302 75.9663 14.7619 74.5664C14.8107 74.3639 15.2278 74.1127 15.4741 74.1103C18.6789 74.081 21.8813 74.0908 25.2837 74.0908C24.8569 76.1761 24.4642 78.1395 24.0642 80.1004C23.5033 82.7979 22.9496 85.4979 22.3569 88.1881C22.274 88.5515 21.9716 89.0271 21.6521 89.1637C17.3253 90.871 12.8717 91.5539 8.31081 90.3222C3.44991 89.0052 0.164593 84.6174 0.00849737 79.6029C-0.264669 70.3347 6.07426 62.8982 15.2766 61.6617C18.535 61.2227 21.7521 61.2666 24.891 62.3787C25.1179 62.4592 25.3423 62.5543 25.5642 62.6543C25.6738 62.7262 25.7767 62.8078 25.8715 62.8982L24.0789 67.7494C22.4228 67.3982 20.9082 66.9055 19.3667 66.7738C10.74 66.0299 5.74987 72.9761 7.08156 80.3492C7.85716 84.6247 11.6912 85.8174 14.8985 85.5003C17.1741 85.2735 17.1741 85.2125 17.6351 82.9857C17.8985 81.7248 18.1399 80.4614 18.4277 78.998Z" fill="#719327"/>
<path d="M125.663 90.2743H119.519C119.87 88.3036 120.185 86.4036 120.546 84.5134C121.908 77.429 123.286 70.3461 124.68 63.2649C124.746 62.9235 125.104 62.4333 125.397 62.3747C129.328 61.6089 133.284 61.226 137.226 62.2576C143.475 63.8918 143.96 69.5502 141.86 74.0087C140.153 77.6355 136.938 79.4257 133.097 80.0354C131.353 80.311 129.553 80.2427 127.572 80.3427C127.289 81.8354 126.972 83.5329 126.648 85.2207C126.324 86.9085 125.992 88.5548 125.663 90.2743ZM128.519 75.0623C130.663 75.4648 132.616 75.3794 134.426 74.3477C135.274 73.8547 135.939 73.099 136.32 72.1947C136.7 71.2904 136.776 70.2868 136.536 69.3356C136.116 67.6722 134.66 66.6917 132.531 66.6527C132.085 66.6405 131.636 66.6868 131.194 66.6527C130.463 66.5893 130.104 66.86 129.975 67.6137C129.519 70.0673 129.016 72.5233 128.519 75.0623Z" fill="#719327"/>
<path d="M176.708 70.3164C176.052 73.9066 175.377 77.1456 174.884 80.4333C174.396 83.6625 174.091 86.9186 173.694 90.2624H168.299V87.3088C167.811 87.7552 167.238 88.2235 166.721 88.7405C164.55 90.9015 161.986 91.5893 159.143 90.4698C156.299 89.3503 155.255 86.921 155.184 84.0503C154.989 76.1212 160.577 68.2652 171.955 69.3652C173.494 69.514 175.013 69.9701 176.708 70.3164ZM170.213 73.8237C168.942 73.9822 168.001 73.9651 167.142 74.231C163.638 75.309 160.999 79.765 161.64 83.3918C161.994 85.3918 163.789 86.3332 165.421 85.1113C166.562 84.2552 167.674 83.0113 168.162 81.6967C169.067 79.287 169.503 76.6724 170.213 73.8237Z" fill="#719327"/>
<path d="M197.164 90.2615H191.137C191.637 87.4348 192.132 84.6933 192.601 81.9495C192.881 80.3129 193.235 78.6739 193.332 77.0227C193.374 76.2691 193.071 75.1325 192.535 74.8081C191.932 74.4447 190.759 74.5398 190.069 74.891C188.135 75.8666 187.186 77.7154 186.745 79.7519C185.996 83.1958 185.362 86.6616 184.659 90.225H178.574C179.013 87.8006 179.45 85.4226 179.874 83.0421C180.591 79.0154 181.318 74.9935 181.998 70.9545C182.135 70.1423 182.398 69.7497 183.311 69.8058C184.637 69.8862 185.974 69.8253 187.403 69.8253C187.32 70.7326 187.24 71.6326 187.159 72.5838C188.328 71.8057 189.381 70.996 190.532 70.3594C192.125 69.4789 193.845 69.096 195.691 69.4521C198.069 69.9131 199.671 71.5643 199.64 73.9886C199.583 76.1342 199.379 78.2733 199.03 80.391C198.591 83.2738 197.988 86.1299 197.449 88.9957C197.376 89.4225 197.262 89.8445 197.164 90.2615Z" fill="#719327"/>
<path d="M92.7364 90.2621H86.7291C87.9657 83.4329 89.1852 76.7111 90.4266 69.86H95.5192C95.429 70.7819 95.3388 71.7282 95.229 72.8746C95.6436 72.5038 95.9314 72.2502 96.2046 71.9916C97.7233 70.5606 99.6481 69.6353 101.714 69.3429C105.224 68.8551 107.917 70.9551 107.856 74.494C107.814 76.8696 107.312 79.2379 106.973 81.6037C106.765 83.0476 106.485 84.4817 106.222 85.9183C105.958 87.3548 105.695 88.7792 105.419 90.267H99.2753C99.6558 88.1572 100.048 86.1207 100.387 84.0573C100.785 81.6598 101.229 79.2623 101.456 76.8452C101.524 76.1257 101.122 74.9184 100.607 74.6965C99.8923 74.3892 98.7363 74.5599 98.0021 74.955C96.3558 75.8428 95.4192 77.4452 94.9997 79.2208C94.268 82.3354 93.6876 85.4866 93.0485 88.6231C92.951 89.1377 92.8534 89.6572 92.7364 90.2621Z" fill="#719327"/>
<path d="M71.6562 82.4988C71.6025 84.3769 72.4269 85.411 74.1586 85.8232C76.339 86.3402 78.4317 85.8451 80.5219 85.3037C80.9073 85.2012 81.2878 85.0744 81.7682 84.9305C81.8707 86.2695 82.0121 87.5158 82.0121 88.7646C81.9794 88.9645 81.8998 89.1538 81.7798 89.317C81.6598 89.4802 81.5029 89.6127 81.3219 89.7036C77.7781 91.089 74.1269 91.4475 70.4904 90.2182C67.6099 89.2426 65.9368 87.0329 65.7051 84.033C65.3514 79.4379 66.6587 75.3233 70.1782 72.1746C73.0196 69.6307 76.422 68.7966 80.1585 69.5527C82.7292 70.0722 84.6804 72.121 84.9853 74.4429C85.3487 77.2355 84.2999 79.355 81.8146 80.7355C79.5975 81.955 77.1659 82.3793 74.6708 82.4915C73.6659 82.5354 72.6562 82.4988 71.6562 82.4988ZM72.2952 78.2599C74.3391 77.9623 76.1073 77.7721 77.8439 77.4233C78.6439 77.2648 79.3658 76.7745 79.3073 75.7453C79.3051 75.3137 79.1528 74.8962 78.8764 74.5647C78.6 74.2331 78.2169 74.0081 77.7927 73.9282C77.3667 73.8137 76.9219 73.7871 76.4854 73.8502C74.1903 74.2575 73.122 75.8916 72.2952 78.2599Z" fill="#719327"/>
<path d="M50.0077 82.494C50.137 84.572 50.915 85.4647 52.7248 85.8403C54.9199 86.294 57.0003 85.8184 59.0905 85.2793C59.4344 85.1915 59.7734 85.0915 60.2442 84.9598C60.3271 86.4013 60.432 87.7281 60.449 89.0525C60.449 89.2598 60.0881 89.5695 59.832 89.6695C56.3711 91.0207 52.8223 91.4085 49.2297 90.3183C46.1761 89.3915 44.2761 86.8062 44.1542 83.5989C43.9371 77.9599 45.8615 73.3868 50.9833 70.5747C52.1951 69.8983 53.5318 69.4755 54.9121 69.3321C56.2925 69.1887 57.6876 69.3277 59.0125 69.7406C61.2929 70.4088 62.8441 71.8991 63.2783 74.2746C63.7514 76.86 62.9466 79.0136 60.6856 80.4989C58.5466 81.9038 56.1174 82.3452 53.6126 82.4818C52.4467 82.5477 51.2785 82.494 50.0077 82.494ZM50.7882 78.2112C52.5394 77.9892 54.2199 77.8648 55.8637 77.5404C57.3271 77.2502 57.8149 76.5136 57.571 75.3868C57.3466 74.3551 56.2272 73.6624 55.0369 73.8137C53.0638 74.0649 51.3882 75.7258 50.7955 78.2112H50.7882Z" fill="#719327"/>
<path d="M203.113 85.2812C205.154 85.6519 206.998 86.0568 208.866 86.2958C209.805 86.4153 210.796 86.1861 211.127 85.0763C211.469 83.9276 210.639 83.369 209.835 82.8666C208.808 82.2154 207.71 81.6618 206.73 80.9496C203.388 78.5106 203.34 73.8082 206.591 71.24C209.439 68.9912 215.105 68.6156 218.478 70.5083C217.959 71.879 217.432 73.2643 216.915 74.6302C215.817 74.3424 214.82 73.9619 213.793 73.8424C212.912 73.7403 212.02 73.8107 211.166 74.0497C210.027 74.3863 209.844 75.5399 210.737 76.335C211.243 76.7407 211.781 77.106 212.344 77.4277C213.027 77.8667 213.717 78.2935 214.408 78.7203C218.961 81.552 217.891 87.9543 213.327 89.9397C209.742 91.5031 206.113 91.1372 202.554 89.7348C202.31 89.6421 202.066 89.0958 202.135 88.8299C202.42 87.5787 202.808 86.3592 203.113 85.2812Z" fill="#719327"/>
<path d="M149.435 90.279H143.221C145.133 80.3182 147.031 70.4379 148.943 60.4819H155.128C153.228 70.433 151.335 80.3426 149.435 90.279Z" fill="#719327"/>
<path d="M42.4688 75.3474C38.0494 75.4547 35.925 77.2985 35.0055 81.7668C34.7104 83.196 34.4885 84.6399 34.2275 86.0765C33.9836 87.4642 33.7177 88.8496 33.4543 90.274H27.5203C27.9154 88.0789 28.3398 86.0008 28.6593 83.896C29.3211 79.5692 29.9463 75.2376 30.5349 70.9011C30.6324 70.1694 30.8007 69.806 31.6178 69.8401C32.986 69.8962 34.3568 69.8548 35.8494 69.8548C35.7202 71.1742 35.6055 72.3523 35.447 73.923C37.4957 70.8523 39.9445 69.1572 43.5444 69.2694C43.1786 71.3425 42.8274 73.3157 42.4688 75.3474Z" fill="#719327"/>
</svg>
