<svg width="354" height="408" viewBox="0 0 354 408" fill="none" xmlns="http://www.w3.org/2000/svg">
<path d="M208.189 192.765C234.498 192.582 256.865 201.231 278.195 213.946C299.949 226.927 322.085 239.285 344.022 251.951L353.423 257.379C351.981 260.3 351.161 262.337 350.05 264.184C330.658 296.617 312.848 330.12 291.428 361.138C267.585 395.622 219.482 406.836 180.993 389.657C165.086 382.562 149.776 373.856 133.274 365.328C141.586 354.243 148.256 344.499 155.83 335.499C163.774 326.09 169.458 325.484 180.321 330.845C186.333 333.827 192.47 336.749 198.572 339.383C217.978 347.81 235.225 344.306 248.155 327.224C259.493 312.244 269.008 295.878 279.191 280.32C243.207 249.215 202.078 248.35 170.074 273.525C157.144 283.94 146.061 296.459 137.292 310.557C117.15 342.557 99.053 375.827 80.0558 408.577C69.0033 427.72 56.4207 431.652 36.7438 422.002C29.6401 418.523 23.025 414.082 15.2572 409.597L20.6632 400.233C34.7649 375.808 49.1167 351.528 62.8543 326.848C63.6863 325.007 64.1051 323.006 64.0815 320.985C64.0579 318.964 63.5924 316.973 62.7177 315.151C49.7216 293.853 35.9216 273.023 22.6479 251.897C0.991756 217.535 -7.03178 181.002 7.96722 142.012C16.7728 119.061 29.7367 98.3774 50.4965 84.0166C76.4784 65.9619 103.227 48.9275 129.036 30.5951C143.768 20.1297 157.276 7.93535 172.41 -4.34203C170.829 -4.7217 171.66 -4.77509 172 -4.4012C208.966 36.9345 195.81 46.1329 164.848 68.7322C145.702 82.6471 124.977 94.4067 106.419 108.995C93.9053 118.88 82.8824 130.517 73.6907 143.547C61.1445 161.429 59.7856 182.414 64.7927 203.499C69.4551 223.141 79.9902 239.886 91.7191 257.143C110.988 244.21 128.775 230.687 141.013 211.606C147.917 200.842 147.481 188.394 142.783 176.396C139.385 167.77 135.733 159.197 132.521 150.478C125.767 132.073 129.262 121.939 146.054 111.641C151.64 108.201 157.795 105.624 164.57 102.205C175.865 134.65 206.487 156.062 208.189 192.765Z" fill="white" fill-opacity="0.02"/>
</svg>
