<svg width="64" height="64" viewBox="0 0 64 64" fill="none" xmlns="http://www.w3.org/2000/svg">
<path d="M47.9168 18.3273C48.577 18.4973 49.1991 18.8281 49.716 19.284C49.908 19.4535 50.1465 19.5368 50.384 19.5368C50.6639 19.5368 50.9425 19.421 51.1421 19.1946C51.5113 18.7761 51.4713 18.1376 51.0528 17.7684C50.499 17.2799 49.8614 16.8894 49.179 16.6178V15.1578C49.179 12.0003 46.6101 9.4314 43.4525 9.4314C40.295 9.4314 37.7262 12.0001 37.7262 15.1578V16.6178C37.0437 16.8894 36.4062 17.2799 35.8524 17.7684C35.4339 18.1374 35.3939 18.7761 35.763 19.1946C36.1324 19.6133 36.7709 19.6534 37.1894 19.284C37.7064 18.8279 38.3287 18.4971 38.9887 18.3273C39.4353 18.2124 39.7474 17.8098 39.7474 17.3486V15.1578C39.7474 13.1146 41.4095 11.4525 43.4527 11.4525C45.4958 11.4525 47.1579 13.1146 47.1579 15.1578V17.3486C47.158 17.8099 47.4702 18.2124 47.9168 18.3273Z" fill="#719327"/>
<path d="M26.2734 24.5895V26.048C23.8584 27.002 22.2313 29.3472 22.2313 32C22.2313 35.5289 25.1024 38.4 28.6313 38.4H30.9892V43.1158H29.3049C28.7468 43.1158 28.2944 43.5683 28.2944 44.1263C28.2944 44.6844 28.7469 45.1368 29.3049 45.1368H40.0839C40.6421 45.1368 41.0944 44.6843 41.0944 44.1263C41.0944 43.5681 40.6419 43.1158 40.0839 43.1158H33.0103V38.4H35.3682C38.8971 38.4 41.7682 35.5289 41.7682 32C41.7682 31.7408 41.7524 31.4795 41.7215 31.2239C41.6543 30.6699 41.1508 30.2744 40.5968 30.3422C40.0428 30.4093 39.6479 30.9128 39.7152 31.4669C39.7363 31.6422 39.7471 31.8217 39.7471 32C39.7471 34.4145 37.7826 36.379 35.3681 36.379H33.0102V32C33.0102 31.4419 32.5577 30.9895 31.9997 30.9895C31.4416 30.9895 30.9892 31.442 30.9892 32V36.3788H28.6313C26.2168 36.3788 24.2523 34.4143 24.2523 31.9998C24.2523 30.0003 25.6026 28.2563 27.5357 27.7587C27.9822 27.6438 28.2944 27.2412 28.2944 26.78V24.5892C28.2944 22.546 29.9566 20.8839 31.9997 20.8839C33.0316 20.8839 34.0062 21.3208 34.6971 22.0512C33.2956 22.7822 32.3364 24.2495 32.3364 25.9365C32.3364 28.351 34.3009 30.3155 36.7154 30.3155C39.1299 30.3155 41.0944 28.351 41.0944 25.9365C41.0944 23.5702 39.2077 21.6362 36.8596 21.56C35.8223 19.903 33.9792 18.8629 31.9997 18.8629C28.8423 18.8632 26.2734 21.4319 26.2734 24.5895ZM36.7156 23.579C38.0157 23.579 39.0734 24.6369 39.0734 25.9369C39.0734 27.237 38.0156 28.2948 36.7156 28.2948C35.4156 28.2948 34.3577 27.2369 34.3577 25.9369C34.3577 24.6368 35.4156 23.579 36.7156 23.579Z" fill="#719327"/>
<path d="M14.8211 15.1578V16.6175C14.1372 16.8894 13.499 17.28 12.9455 17.7685C12.5271 18.1379 12.4872 18.7765 12.8566 19.1949C13.2258 19.6133 13.8646 19.6531 14.283 19.2838C14.7988 18.8284 15.4216 18.4975 16.0837 18.3271C16.5302 18.2123 16.8423 17.8096 16.8423 17.3485V15.1576C16.8423 13.1145 18.5046 11.4524 20.5477 11.4524C22.5908 11.4524 24.2529 13.1145 24.2529 15.1576V17.3486C24.2529 17.8098 24.5649 18.2123 25.0116 18.3273C25.6738 18.4978 26.2967 18.8286 26.8128 19.2843C27.0049 19.4539 27.2434 19.5371 27.4811 19.5371C27.7608 19.5371 28.0393 19.4215 28.2389 19.1953C28.6082 18.7769 28.5686 18.1383 28.1502 17.7689C27.5964 17.2799 26.9581 16.8891 26.2738 16.6173V15.1575C26.2738 12 23.7051 9.43115 20.5476 9.43115C17.3898 9.43153 14.8211 12.0003 14.8211 15.1578Z" fill="#719327"/>
<path d="M57.5734 5.05261C57.5734 5.61073 58.0259 6.06311 58.5839 6.06311H60.2947C61.2234 6.06311 61.9789 6.81861 61.9789 7.74736C61.9789 8.67611 61.2234 9.4316 60.2947 9.4316H56.2526C55.3238 9.4316 54.5683 8.67611 54.5683 7.74736C54.5683 7.44986 54.6448 7.16686 54.7957 6.90648C55.0754 6.42361 54.9106 5.80523 54.4276 5.52561C53.9448 5.24598 53.3263 5.41073 53.0467 5.89373C52.7199 6.45786 52.5472 7.09898 52.5472 7.74748C52.5472 9.7906 54.2093 11.4527 56.2524 11.4527H60.2945C62.3377 11.4527 63.9998 9.7906 63.9998 7.74748C63.9998 5.70436 62.3377 4.04224 60.2945 4.04224H58.5838C58.0258 4.04211 57.5734 4.49449 57.5734 5.05261Z" fill="#719327"/>
<path d="M38.7369 7.41049H50.8632C51.4213 7.41049 51.8737 6.95799 51.8737 6.39999C51.8737 5.84199 51.4212 5.38949 50.8632 5.38949H38.7369C37.8081 5.38949 37.0526 4.63399 37.0526 3.70525C37.0526 2.7765 37.8081 2.021 38.7369 2.021H56.2526C56.8522 2.021 57.4113 2.344 57.712 2.86387C57.9916 3.34712 58.6097 3.51225 59.0927 3.23262C59.5758 2.953 59.741 2.33487 59.4615 1.85187C58.8007 0.709624 57.5711 0 56.2526 0H38.7369C36.6937 0 35.0316 1.66212 35.0316 3.70525C35.0316 5.74837 36.6937 7.41049 38.7369 7.41049Z" fill="#719327"/>
<path d="M62.9895 53.221C63.5476 53.221 64 52.7685 64 52.2105C64 51.6525 63.5475 51.2 62.9895 51.2H62.6526V48.1683C62.6526 47.6102 62.2001 47.1578 61.6421 47.1578C61.0841 47.1578 60.6316 47.6103 60.6316 48.1683V51.2H55.2421V48.1683C55.2421 47.6102 54.7896 47.1578 54.2316 47.1578C53.6735 47.1578 53.2211 47.6103 53.2211 48.1683V51.2H47.8316V48.1683C47.8316 47.6102 47.3791 47.1578 46.8211 47.1578C46.2631 47.1578 45.8106 47.6103 45.8106 48.1683V51.2H40.4211V48.1683C40.4211 47.6102 39.9686 47.1578 39.4106 47.1578C38.8525 47.1578 38.4001 47.6103 38.4001 48.1683V51.2H33.0106V48.1683C33.0106 47.6102 32.5581 47.1578 32.0001 47.1578C31.442 47.1578 30.9897 47.6103 30.9897 48.1683V51.2H25.6V48.1683C25.6 47.6102 25.1475 47.1578 24.5895 47.1578C24.0314 47.1578 23.579 47.6103 23.579 48.1683V51.2H20.6822C20.124 51.2 19.6717 51.6525 19.6717 52.2105C19.6717 52.7685 20.1242 53.221 20.6822 53.221H23.579V61.9788H18.1895V48.1683C18.1895 47.6102 17.737 47.1578 17.179 47.1578C16.6209 47.1578 16.1685 47.6103 16.1685 48.1683V61.9788H10.779V53.221H13.6759C14.234 53.221 14.6864 52.7685 14.6864 52.2105C14.6864 51.6525 14.2339 51.2 13.6759 51.2H10.779V48.1683C10.779 47.6102 10.3265 47.1578 9.76855 47.1578C9.21043 47.1578 8.75805 47.6103 8.75805 48.1683V51.2H3.36843V48.1683C3.36843 47.6102 2.91593 47.1578 2.35793 47.1578C1.79981 47.1578 1.34743 47.6103 1.34743 48.1683V51.2H1.01056C0.45256 51.2 6.10352e-05 51.6525 6.10352e-05 52.2105C6.10352e-05 52.7685 0.45256 53.221 1.01056 53.221H1.34743V61.9788H1.01056C0.452435 61.9788 6.10352e-05 62.4313 6.10352e-05 62.9893C6.10352e-05 63.5474 0.45256 63.9999 1.01056 63.9999H42.1053C42.6634 63.9999 43.1158 63.5474 43.1158 62.9894C43.1158 62.4313 42.6633 61.9789 42.1053 61.9789H40.421V53.2211H45.8105V61.9789H45.5185C44.9604 61.9789 44.508 62.4314 44.508 62.9894C44.508 63.5476 44.9605 63.9999 45.5185 63.9999H62.9894C63.5475 63.9999 63.9999 63.5474 63.9999 62.9894C63.9999 62.4313 63.5474 61.9789 62.9894 61.9789H62.6525V53.2211H62.9895V53.221ZM8.75793 61.9789H3.36843V53.2211H8.75793V61.9789ZM30.9895 61.9789H25.6V53.2211H30.9895V61.9789ZM38.4 61.9789H33.0105V53.2211H38.4V61.9789ZM53.221 61.9789H47.8315V53.2211H53.221V61.9789ZM60.6316 61.9789H55.2421V53.2211H60.6316V61.9789Z" fill="#719327"/>
<path d="M12.4631 7.4104C13.6333 7.4104 14.7313 7.79853 15.6387 8.53278C16.0726 8.8839 16.709 8.8169 17.06 8.3829C17.4111 7.94903 17.344 7.31265 16.9101 6.96166C15.6572 5.94778 14.0778 5.38928 12.4631 5.38928C8.56259 5.38928 5.38947 8.5624 5.38947 12.4629C5.38947 14.0773 5.94784 15.6565 6.96159 16.9094C7.16121 17.1563 7.45321 17.2844 7.74771 17.2844C7.97096 17.2843 8.19559 17.2106 8.38271 17.0594C8.81659 16.7084 8.88371 16.072 8.53271 15.6381C7.79859 14.731 7.41046 13.633 7.41046 12.4629C7.41046 9.67703 9.67709 7.4104 12.4631 7.4104Z" fill="#719327"/>
<path d="M9.76842 30.9896C9.2103 30.9896 8.75793 31.4421 8.75793 32.0001V36.3791H6.40005C3.98556 36.3791 2.02106 34.4146 2.02106 32.0001C2.02106 31.442 1.56856 30.9896 1.01056 30.9896C0.45256 30.9896 6.10352e-05 31.442 6.10352e-05 32.0001C6.10352e-05 35.529 2.87118 38.4001 6.40005 38.4001H8.75793V43.1159H7.74743C7.1893 43.1159 6.73693 43.5684 6.73693 44.1264C6.73693 44.6845 7.18943 45.1369 7.74743 45.1369H18.5264C19.0845 45.1369 19.5369 44.6844 19.5369 44.1264C19.5369 43.5683 19.0844 43.1159 18.5264 43.1159H10.779V38.4001H13.1369C16.6658 38.4001 19.5369 35.529 19.5369 32.0001C19.5369 29.3473 17.9098 27.0021 15.4948 26.0481V24.5897C15.4948 21.4322 12.926 18.8633 9.76855 18.8633C7.77818 18.8633 5.92555 19.915 4.89156 21.5878C4.72356 21.5682 4.55231 21.558 4.37906 21.558C1.96456 21.558 6.10352e-05 23.5225 6.10352e-05 25.937C6.10352e-05 28.3515 1.96456 30.316 4.37906 30.316C6.79355 30.316 8.75805 28.3515 8.75805 25.937C8.75805 24.435 7.99768 23.1072 6.84193 22.318C7.53618 21.4288 8.6168 20.8844 9.76855 20.8844C11.8117 20.8844 13.4738 22.5465 13.4738 24.5897V26.7805C13.4738 27.2416 13.7858 27.6441 14.2325 27.7591C16.1658 28.2568 17.5159 30.0008 17.5159 32.0003C17.5159 34.4148 15.5514 36.3793 13.1369 36.3793H10.779V32.0001C10.779 31.442 10.3265 30.9896 9.76842 30.9896ZM4.37906 28.2949C3.07893 28.2949 2.02118 27.237 2.02118 25.937C2.02118 24.6369 3.07906 23.5792 4.37906 23.5792C5.67918 23.5792 6.73693 24.637 6.73693 25.937C6.73693 27.237 5.67905 28.2949 4.37906 28.2949Z" fill="#719327"/>
<path d="M55.2422 25.937C55.2422 28.3515 57.2067 30.316 59.6212 30.316C62.0357 30.316 64.0002 28.3515 64.0002 25.937C64.0002 23.5225 62.0357 21.558 59.6212 21.558C59.4479 21.558 59.2767 21.5682 59.1087 21.5878C58.0747 19.915 56.2221 18.8633 54.2317 18.8633C51.0742 18.8633 48.5054 21.432 48.5054 24.5897V26.0481C46.0904 27.0021 44.4633 29.3473 44.4633 32.0001C44.4633 35.529 47.3344 38.4001 50.8633 38.4001H53.2212V43.1159H52.2107C51.6526 43.1159 51.2002 43.5684 51.2002 44.1264C51.2002 44.6845 51.6527 45.1369 52.2107 45.1369H62.9897C63.5478 45.1369 64.0002 44.6844 64.0002 44.1264C64.0002 43.5683 63.5477 43.1159 62.9897 43.1159H55.2423V38.4001H57.6001C61.1289 38.4001 64 35.529 64 32.0001C64 31.6746 63.9753 31.3476 63.9267 31.0283C63.8424 30.4765 63.3272 30.0974 62.7752 30.1819C62.2234 30.2661 61.8445 30.7816 61.9288 31.3334C61.9622 31.5521 61.9792 31.7765 61.9792 32.0004C61.9792 34.4149 60.0147 36.3794 57.6002 36.3794H55.2422V32.0004C55.2422 31.4423 54.7897 30.9899 54.2317 30.9899C53.6736 30.9899 53.2212 31.4424 53.2212 32.0004V36.3791H50.8633C48.4488 36.3791 46.4843 34.4146 46.4843 32.0001C46.4843 30.0006 47.8346 28.2566 49.7677 27.759C50.2142 27.6441 50.5264 27.2415 50.5264 26.7804V24.5895C50.5264 22.5464 52.1886 20.8843 54.2317 20.8843C55.3834 20.8843 56.4641 21.4287 57.1583 22.3179C56.0024 23.1072 55.2422 24.4349 55.2422 25.937ZM59.621 23.5792C60.9212 23.5792 61.9789 24.637 61.9789 25.937C61.9789 27.2371 60.921 28.2949 59.621 28.2949C58.3209 28.2949 57.2632 27.237 57.2632 25.937C57.2632 24.6369 58.3211 23.5792 59.621 23.5792Z" fill="#719327"/>
<path d="M5.73464 4.47774C7.61264 2.8935 10.0021 2.021 12.4633 2.021C16.5576 2.021 20.294 4.43224 21.9822 8.16374C22.1511 8.53711 22.5187 8.75811 22.9035 8.75811C23.0429 8.75811 23.1842 8.72911 23.3195 8.66799C23.828 8.43799 24.0539 7.83937 23.8236 7.33087C21.8089 2.8775 17.3496 0 12.4633 0C9.52589 0 6.67351 1.0415 4.43152 2.93287C4.00489 3.29275 3.95089 3.93037 4.31077 4.35687C4.67052 4.78337 5.30814 4.83749 5.73464 4.47774Z" fill="#719327"/>
<path d="M3.70631 20.8543C3.93631 20.8543 4.16781 20.7762 4.35731 20.616C4.78393 20.2562 4.83793 19.6187 4.47806 19.1922C2.89368 17.314 2.02118 14.9244 2.02118 12.4632C2.02118 10.5014 2.56793 8.59004 3.60218 6.93567C3.89806 6.46242 3.75431 5.83905 3.28106 5.54317C2.80781 5.24717 2.18431 5.39105 1.88856 5.8643C0.653185 7.84029 6.10352e-05 10.1222 6.10352e-05 12.4632C6.10352e-05 15.4007 1.04168 18.2532 2.93331 20.4954C3.13306 20.7324 3.41868 20.8543 3.70631 20.8543Z" fill="#719327"/>
</svg>
