<svg width="64" height="64" viewBox="0 0 64 64" fill="none" xmlns="http://www.w3.org/2000/svg">
<path d="M0 34.2529C0.358141 33.6599 0.883071 33.4939 1.54376 33.5624C2.03371 33.5916 2.52481 33.5951 3.01511 33.573C3.58271 27.2928 6.6935 23.2237 12.9202 22.0839C17.3408 21.2749 21.91 23.6652 24.2528 27.6908C26.465 31.4923 26.6137 37.4668 22.3858 41.856C22.7362 42.1881 23.0775 42.5294 23.4421 42.8443C23.5656 42.9513 23.7199 43.0147 23.8817 43.0248C27.2058 43.0406 30.5196 42.9141 33.6149 41.5003C34.7656 40.9732 35.831 40.2511 36.9222 39.5949C37.0043 39.5438 37.0748 39.4754 37.1287 39.3943C37.1827 39.3131 37.219 39.2211 37.2351 39.1244C37.2351 37.4496 37.1769 35.7762 37.1782 34.1014C37.1782 33.623 37.0735 33.4241 36.5653 33.3107C34.838 32.9007 33.3194 31.8562 32.3001 30.3769C31.2808 28.8977 30.8322 27.0874 31.0401 25.2923C31.2479 23.4971 32.0976 21.843 33.4268 20.6462C34.756 19.4494 36.4713 18.7938 38.2449 18.8048C40.0185 18.8158 41.7259 19.4926 43.0407 20.7059C44.3555 21.9191 45.1854 23.5836 45.3718 25.3812C45.5582 27.1788 45.088 28.9833 44.051 30.4498C43.0141 31.9163 41.4833 32.9419 39.7511 33.3305C39.3335 33.4227 39.212 33.5769 39.2197 33.9894C39.2417 35.1898 39.2275 36.3915 39.2275 37.7633C39.8739 37.1769 40.4015 36.7183 40.9005 36.2242C45.4038 31.7638 50.7371 28.9307 56.9238 27.8462C58.7636 27.5247 60.6423 27.4074 62.508 27.2651C63.6832 27.1689 64 27.5326 64 28.7186V60.9469C64 61.5622 64 62.1776 64 62.7917C63.9884 63.6442 63.6121 64.0158 62.764 64.0356H62.5778C42.2064 64.0356 21.8346 64.0391 1.4623 64.0461C0.815839 64.0461 0.328404 63.8709 0.00646465 63.2924L0 34.2529ZM61.9313 29.3774C61.6533 29.3774 61.4478 29.3695 61.2435 29.3774C55.5804 29.6251 50.4126 31.3988 45.8305 34.78C44.0204 36.1201 42.3628 37.6947 40.6924 39.2259C36.9636 42.6519 32.7008 44.7668 27.6183 44.979C27.1166 44.9987 26.615 45.0594 26.006 45.1108C29.7219 48.2614 33.7067 50.5344 38.444 51.1801C40.3549 51.4436 42.2878 51.7928 44.0514 50.537C44.3436 50.3288 44.4716 50.1865 44.4393 49.7991C44.1807 46.7408 45.9442 43.7654 48.7202 42.5373C51.5646 41.2776 54.9767 41.9364 56.907 44.3821C57.7034 45.3901 58.4585 45.8039 59.6739 45.6774C60.4018 45.6009 61.1543 45.7762 61.9326 45.8408L61.9313 29.3774ZM15.4841 42.9062C19.5142 42.5676 23.8714 38.878 23.7201 33.2462C23.6855 31.9853 23.404 30.7442 22.8922 29.5958C22.3804 28.4474 21.6485 27.4148 20.7396 26.5587C19.8307 25.7025 18.763 25.0402 17.5994 24.6105C16.4358 24.1808 15.1997 23.9925 13.9636 24.0565C8.9781 24.2898 4.95838 28.8003 5.17948 33.8576C5.4303 39.6133 10.1689 42.7771 13.4219 42.8667V42.1209C13.4219 39.3405 13.4219 36.5615 13.4219 33.7812C13.4219 32.9905 13.8098 32.5069 14.42 32.4898C15.0497 32.4701 15.4647 32.9787 15.4738 33.7891C15.4738 34.2121 15.4738 34.635 15.4738 35.0593L15.6703 35.1265C15.8203 34.922 15.9804 34.7254 16.15 34.5375C16.6917 33.9933 17.3046 33.9498 17.739 34.4058C18.1734 34.8617 18.1114 35.452 17.6097 35.987C17.0137 36.6089 16.3982 37.2125 15.7996 37.8318C15.6625 37.9754 15.4945 38.1731 15.4919 38.3483C15.4738 39.8531 15.4841 41.3566 15.4841 42.9062ZM13.4245 58.9479V46.273C13.4245 45.1094 13.4245 45.1266 12.3074 44.867C7.68776 43.7891 4.72566 40.9205 3.45212 36.2703C3.33317 35.8368 3.15475 35.6655 2.7423 35.6852C2.53802 35.6945 2.33244 35.6852 2.1036 35.6852C2.07695 35.8351 2.05924 35.9865 2.05059 36.1385C2.05059 43.2541 2.04671 50.3657 2.03895 57.4734C2.03895 57.8938 2.21479 58.0176 2.57293 58.0782C3.66028 58.2627 4.73859 58.5012 5.82982 58.662C8.34499 59.0232 10.89 59.119 13.4245 58.9479ZM15.5126 58.8478C23.2701 57.6895 30.9139 56.4891 38.122 53.3213C30.9773 52.3054 25.7293 47.9754 20.7451 43.1316C19.1354 44.2424 17.3757 44.8156 15.5152 45.058L15.5126 58.8478ZM2.07515 61.8956H50.56V56.5932C48.0233 56.1096 46.2015 54.701 45.056 52.4003C44.9835 52.4071 44.9119 52.4221 44.8427 52.4451C44.3759 52.6783 43.9079 52.9089 43.4463 53.1514C39.755 55.091 35.9331 56.7171 31.9069 57.7554C27.1683 58.9756 22.3935 60.0535 17.5347 60.6807C13.3624 61.2183 9.19143 61.3316 5.02303 60.6464C4.04687 60.4857 3.07329 60.3052 2.06998 60.1299L2.07515 61.8956ZM52.6675 61.8811H61.9067V47.957L58.699 47.6684C59.4437 51.8139 57.0958 55.7512 52.6714 56.6288L52.6675 61.8811ZM52.6895 54.4032C55.0982 54.1475 56.9794 51.5293 56.7596 48.7634C56.5398 45.9976 54.0923 43.9116 51.2685 44.054C48.565 44.1857 46.4032 46.5971 46.4575 49.4104C46.5067 51.893 48.5262 54.3518 50.6091 54.3663V53.6877C50.6091 51.9681 50.6091 50.2485 50.6091 48.5289C50.6091 47.6658 50.9724 47.2243 51.6435 47.2375C52.2835 47.2507 52.6261 47.6882 52.6326 48.5091C52.6326 48.9387 52.6326 49.3682 52.6326 49.7965L52.8575 49.9125C53.0317 49.6495 53.2245 49.3998 53.4342 49.1653C53.9048 48.7041 54.4685 48.6962 54.8849 49.1047C55.3012 49.5132 55.3154 50.1351 54.8538 50.6346C54.3922 51.134 53.9552 51.6531 53.4316 52.0669C52.6597 52.6823 52.471 53.4386 52.6895 54.4032ZM39.2818 31.2723C41.7383 30.8677 43.6079 28.3074 43.3571 25.7379C43.0856 22.9352 40.7816 20.8137 38.0949 20.8927C36.7687 20.9271 35.5053 21.4757 34.5623 22.4267C33.6193 23.3777 33.0678 24.6595 33.0201 26.0107C32.9257 28.5249 34.8509 30.9995 37.1665 31.2683V30.5633C37.1665 28.8648 37.1665 27.1676 37.1665 25.4704C37.1665 24.581 37.5389 24.0763 38.1828 24.0671C38.8267 24.0578 39.2171 24.5718 39.2249 25.4441C39.2249 25.8394 39.2249 26.2268 39.2249 26.6181L39.4641 26.7697C39.6438 26.5154 39.7925 26.2294 40.0097 26.0133C40.4622 25.564 41.057 25.5613 41.4617 25.9593C41.8663 26.3572 41.8793 26.999 41.4242 27.4891C40.9691 27.9793 40.5605 28.484 40.0485 28.8727C39.2314 29.5 39.093 30.2919 39.2818 31.2723Z" fill="#719327"/>
<path d="M18.591 5.13175C19.6254 3.84436 20.8976 3.14466 22.4827 3.02343C22.6766 2.9799 22.8479 2.86493 22.9637 2.70059C25.8741 -1.09834 30.8907 -1.09043 33.8321 2.71245C33.9902 2.88903 34.2064 3.00019 34.4397 3.02475C36.767 3.24744 38.6974 4.96704 39.1124 7.22426C39.5636 9.65673 38.4 11.9153 36.246 13.038C35.5219 13.4175 34.8237 13.5242 34.048 13.5189C31.4621 13.5018 28.8763 13.5189 26.3008 13.5031C25.8508 13.5031 25.6543 13.6349 25.525 14.0842C25.0906 15.5429 24.1273 16.5351 22.8098 17.2533C22.1181 17.6315 21.4303 17.7435 20.6675 17.7395C16.9813 17.7211 13.2978 17.7395 9.60904 17.7277C7.04516 17.7197 5.09543 16.3401 4.39337 14.0776C4.16043 13.3266 4.09561 12.5319 4.20369 11.7519C4.31176 10.972 4.58998 10.2267 5.01789 9.57076C5.44579 8.91483 6.0125 8.36499 6.67636 7.96165C7.34021 7.55832 8.08431 7.31175 8.85397 7.24007C9.1078 7.22016 9.34585 7.10682 9.52371 6.92119C11.7863 3.99984 15.1053 3.27116 18.3156 5.01316C18.3932 5.05664 18.4721 5.08431 18.591 5.13175ZM14.945 15.6496C16.8197 15.6496 18.6945 15.6799 20.5666 15.6299C21.1229 15.6087 21.6681 15.4648 22.1647 15.2082C23.4292 14.5494 24.0136 13.034 23.6334 11.628C23.2637 10.255 21.9526 9.20081 20.6209 9.3418C19.7831 9.43009 19.328 9.1257 18.9078 8.41941C17.2153 5.57845 13.2267 5.35181 11.308 8.03464C10.6861 8.90564 10.1611 9.40505 8.99102 9.38792C7.33737 9.36948 6.13494 10.9165 6.19442 12.5926C6.21397 13.4087 6.54553 14.1848 7.11842 14.7553C7.69131 15.3259 8.46022 15.6459 9.26124 15.647C11.1554 15.6734 13.0508 15.6523 14.945 15.6536V15.6496ZM20.1529 6.50216C20.383 7.02924 20.6946 7.22031 21.2221 7.29278C23.3684 7.59849 24.8423 8.82527 25.5392 10.9257C25.6827 11.3566 25.8676 11.4593 26.2814 11.4528C28.8427 11.4343 31.4039 11.4646 33.9639 11.4264C34.5019 11.4118 35.0307 11.2811 35.5155 11.043C36.833 10.4026 37.4613 8.82131 37.0424 7.38502C36.6132 5.91842 35.2776 4.9789 33.8178 5.14493C33.2037 5.2174 32.7951 5.01316 32.4797 4.46236C30.5545 1.08904 26.2439 1.09563 24.2915 4.4729C23.9903 4.99998 23.5998 5.22004 23.0103 5.1502C21.7988 5.01184 20.8756 5.51915 20.1529 6.50216Z" fill="#719327"/>
<path d="M51.5646 11.4303C50.2536 11.4303 48.9425 11.4408 47.6315 11.4303C45.7981 11.4118 44.4367 10.102 44.3992 8.34028C44.3617 6.57851 45.6921 5.1778 47.519 5.14749C50.2445 5.0983 52.9704 5.0983 55.6968 5.14749C57.5353 5.17516 58.8684 6.58115 58.836 8.31788C58.8024 10.106 57.4332 11.4145 55.561 11.429C54.2293 11.4382 52.8963 11.4303 51.5646 11.4303ZM51.5943 9.34832C52.9661 9.34832 54.3392 9.3694 55.711 9.3391C56.3885 9.32592 56.7867 8.87527 56.7738 8.26254C56.7609 7.64981 56.3446 7.25713 55.6671 7.23209C55.4382 7.22287 55.2094 7.23209 54.9805 7.23209C52.5472 7.23209 50.1139 7.23209 47.6806 7.23209C46.8648 7.23209 46.4006 7.69592 46.4692 8.40485C46.5261 8.99518 46.9359 9.34305 47.6638 9.35227C48.9736 9.35886 50.2833 9.34832 51.5943 9.34832Z" fill="#719327"/>
<path d="M54.2022 35.6326C53.4109 35.6326 52.6196 35.6405 51.8284 35.6326C51.0371 35.6247 50.613 35.2373 50.6169 34.5785C50.6169 33.946 51.0384 33.5572 51.7883 33.5507C53.3915 33.5375 54.9952 33.5375 56.5993 33.5507C57.3492 33.5507 57.7707 33.946 57.7797 34.5692C57.7888 35.2281 57.3492 35.6234 56.576 35.6366C55.8028 35.6498 54.9935 35.6326 54.2022 35.6326Z" fill="#719327"/>
<path d="M60.8815 34.573C60.8832 34.7073 60.8589 34.8406 60.81 34.9654C60.7612 35.0901 60.6887 35.2038 60.5967 35.2999C60.5048 35.3961 60.3951 35.4729 60.274 35.5259C60.153 35.5789 60.0228 35.607 59.8911 35.6088C59.7593 35.6105 59.6285 35.5858 59.5061 35.536C59.3838 35.4862 59.2722 35.4123 59.1778 35.3186C59.0835 35.2249 59.0081 35.1131 58.9561 34.9897C58.9042 34.8663 58.8765 34.7337 58.8748 34.5994C58.8714 34.3282 58.9738 34.0667 59.1595 33.8725C59.3453 33.6783 59.5991 33.5672 59.8652 33.5637C60.1313 33.5602 60.3879 33.6646 60.5784 33.8539C60.769 34.0432 60.878 34.3018 60.8815 34.573Z" fill="#719327"/>
<path d="M11.8756 13.5148C11.0636 13.5148 10.2503 13.5267 9.43839 13.5148C8.71047 13.503 8.26441 13.0918 8.27475 12.4765C8.28509 11.8611 8.74279 11.4566 9.46166 11.4566C11.0649 11.4495 12.669 11.4495 14.2739 11.4566C14.9915 11.4566 15.4596 11.8664 15.4725 12.4712C15.4854 13.076 15.0368 13.5043 14.3089 13.5174C13.5008 13.5267 12.6888 13.5148 11.8756 13.5148Z" fill="#719327"/>
<path d="M18.5315 12.5239C18.5311 12.6564 18.5045 12.7874 18.4533 12.9092C18.402 13.031 18.3272 13.141 18.2333 13.2326C18.1394 13.3243 18.0283 13.3957 17.9068 13.4426C17.7852 13.4895 17.6555 13.5109 17.5256 13.5056C17.2628 13.5053 17.0107 13.3994 16.8239 13.211C16.637 13.0226 16.5306 12.7667 16.5275 12.4989C16.5363 12.2203 16.6518 11.9563 16.8492 11.7634C17.0467 11.5706 17.3104 11.4642 17.5838 11.4671C17.846 11.4821 18.0919 11.6011 18.2691 11.7986C18.4462 11.9961 18.5404 12.2565 18.5315 12.5239Z" fill="#719327"/>
</svg>
