<svg width="420" height="451" viewBox="0 0 420 451" fill="none" xmlns="http://www.w3.org/2000/svg">
<path d="M247.022 235.076C278.227 234.859 304.756 245.117 330.055 260.198C355.857 275.595 382.111 290.252 408.13 305.274L419.281 311.712C417.57 315.177 416.597 317.593 415.28 319.783C392.279 358.252 371.156 397.988 345.751 434.778C317.471 475.679 260.417 488.98 214.766 468.604C195.9 460.189 177.741 449.863 158.169 439.748C168.026 426.601 175.938 415.043 184.922 404.369C194.343 393.209 201.085 392.49 213.969 398.849C221.1 402.386 228.379 405.851 235.617 408.976C258.633 418.97 279.09 414.814 294.425 394.553C307.873 376.786 319.158 357.375 331.236 338.922C288.557 302.03 239.775 301.004 201.816 330.863C186.48 343.216 173.335 358.064 162.934 374.785C139.044 412.74 117.58 452.2 95.0476 491.044C81.9386 513.75 67.0147 518.413 43.6765 506.967C35.251 502.841 27.4051 497.573 18.1918 492.254L24.6037 481.148C41.3294 452.178 58.3517 423.38 74.6455 394.108C75.6322 391.924 76.1289 389.551 76.101 387.154C76.0729 384.757 75.5209 382.396 74.4834 380.235C59.0692 354.973 42.7013 330.267 26.9577 305.211C1.27204 264.455 -8.24444 221.125 9.54544 174.879C19.9895 147.657 35.3657 123.126 59.9883 106.093C90.8046 84.6784 122.53 64.4743 153.141 42.7309C170.615 30.3181 186.636 15.8547 204.586 1.2929C202.711 0.842578 203.697 0.779263 204.1 1.22272C247.945 50.2498 232.34 61.1597 195.618 87.9641C172.908 104.468 148.327 118.416 126.317 135.719C111.474 147.443 98.4002 161.245 87.4982 176.7C72.6175 197.909 71.0057 222.799 76.9446 247.807C82.4745 271.103 94.9699 290.965 108.881 311.433C131.736 296.093 152.832 280.054 167.348 257.423C175.536 244.655 175.018 229.891 169.447 215.661C165.416 205.43 161.085 195.262 157.275 184.921C149.265 163.09 153.41 151.071 173.326 138.856C179.952 134.777 187.252 131.72 195.288 127.665C208.684 166.147 245.004 191.543 247.022 235.076Z" fill="white" fill-opacity="0.08"/>
</svg>
