<svg width="208" height="37" viewBox="0 0 208 37" fill="none" xmlns="http://www.w3.org/2000/svg">
<path d="M17.2514 12.8424C19.2005 11.7235 21.2356 11.4131 23.3682 11.4422C25.5439 11.4729 27.7211 11.4422 29.8967 11.4422H30.8292C30.8473 11.7154 30.8738 11.8981 30.8705 12.0792C30.8209 15.2546 30.935 18.4414 30.6738 21.599C30.3811 25.1107 27.2847 27.9483 23.684 28.3153C22.1961 28.4673 20.6834 28.477 19.0897 28.5497C19.2319 27.3937 19.3096 26.4042 19.4865 25.4309C19.6733 24.4123 20.0701 24.1293 21.1083 24.0631C21.6836 24.0275 22.2656 23.9822 22.8326 23.9175C24.6379 23.7154 25.7703 22.7356 25.9985 20.9491C26.1985 19.3824 26.2035 17.7914 26.2928 16.2312C22.2804 15.4794 19.184 17.1447 17.8846 20.3217C17.37 21.6231 17.0833 23 17.0365 24.3945C16.9125 27.5699 16.9951 30.7518 16.9885 33.9337C16.9885 35.7914 16.2214 36.6063 14.3434 36.7308C13.6656 36.7761 12.9828 36.7308 12.2124 36.7308V35.8221C12.2124 33.4519 12.2372 31.0816 12.1992 28.7082C12.182 28.5392 12.1272 28.3759 12.0387 28.2299C11.9502 28.0838 11.83 27.9584 11.6867 27.8626C9.80535 26.8585 7.88433 25.9224 5.98976 24.9426C2.90323 23.3517 0.737528 21.0299 0.178745 17.5618C-0.151896 15.5214 -0.0758477 13.4713 0.8516 11.5538C2.00884 9.14794 3.26693 6.78415 4.39938 4.3654C5.04578 2.98464 5.52686 1.52951 6.12532 0C5.99141 0.0388035 6.05093 0 6.09226 0.0129345C10.6171 1.46807 10.0335 2.69038 8.70101 5.63622C7.87441 7.45352 6.83785 9.18027 6.08399 11.0218C5.57767 12.2671 5.25751 13.5773 5.1334 14.9119C4.96808 16.7405 5.76823 18.325 7.04616 19.6491C8.23646 20.8828 9.73923 21.6588 11.3528 22.422C12.2306 20.671 12.9729 18.9394 13.0638 17.0364C13.1151 15.9628 12.548 15.0752 11.6834 14.3994C11.0601 13.9143 10.4203 13.4438 9.80701 12.9442C8.5142 11.8884 8.33896 11.004 9.14573 9.54891C9.41355 9.06386 9.76072 8.61762 10.1178 8.08407C12.3513 9.9709 15.5486 10.2425 17.2514 12.8424Z" fill="#719327"/>
<path d="M57.5985 20.7213H54.1645C54.4061 19.5571 54.5983 18.5386 54.8473 17.5307C54.8839 17.385 55.1969 17.2041 55.3818 17.2024C57.787 17.1813 60.1905 17.1883 62.744 17.1883C62.4237 18.6897 62.129 20.1032 61.8288 21.515C61.4077 23.4571 60.9922 25.4009 60.5474 27.3377C60.4852 27.5994 60.2582 27.9418 60.0184 28.0401C56.7711 29.2693 53.4287 29.7609 50.0057 28.8742C46.3575 27.926 43.8918 24.767 43.7747 21.1568C43.5697 14.4841 48.3271 9.13024 55.2335 8.23997C57.679 7.9239 60.0935 7.9555 62.4493 8.75622C62.6195 8.81416 62.7879 8.88265 62.9545 8.95464C63.0368 9.00637 63.1139 9.06515 63.1851 9.13024L61.8397 12.6228C60.5968 12.37 59.4601 12.0153 58.3032 11.9204C51.8288 11.3849 48.0836 16.3858 49.0831 21.6941C49.6652 24.7723 52.5427 25.6309 54.9498 25.4027C56.6576 25.2394 56.6576 25.1955 57.0036 23.5923C57.2013 22.6844 57.3825 21.7749 57.5985 20.7213Z" fill="#719327"/>
<path d="M138.079 28.8392H133.468C133.732 27.4203 133.968 26.0525 134.239 24.6916C135.262 19.5911 136.296 14.4918 137.342 9.39372C137.391 9.14789 137.66 8.79494 137.88 8.7528C140.831 8.20143 143.8 7.92574 146.758 8.66851C151.447 9.845 151.812 13.9188 150.236 17.1287C148.954 19.7398 146.542 21.0287 143.659 21.4677C142.35 21.6661 140.999 21.6169 139.513 21.6889C139.3 22.7636 139.062 23.9857 138.819 25.2008C138.575 26.4159 138.326 27.6012 138.079 28.8392ZM140.223 17.8873C141.832 18.177 143.298 18.1155 144.656 17.3728C145.293 17.0179 145.792 16.4738 146.077 15.8227C146.363 15.1717 146.42 14.4491 146.24 13.7643C145.925 12.5667 144.832 11.8608 143.234 11.8327C142.899 11.824 142.562 11.8573 142.231 11.8327C141.682 11.7871 141.413 11.982 141.316 12.5246C140.973 14.2911 140.596 16.0593 140.223 17.8873Z" fill="#719327"/>
<path d="M176.39 14.4699C175.897 17.0546 175.39 19.3865 175.021 21.7536C174.654 24.0784 174.426 26.4226 174.127 28.8301H170.078V26.7036C169.712 27.0249 169.282 27.3621 168.894 27.7343C167.265 29.2901 165.341 29.7853 163.207 28.9793C161.072 28.1733 160.289 26.4244 160.236 24.3576C160.089 18.649 164.283 12.9931 172.822 13.785C173.977 13.8922 175.118 14.2205 176.39 14.4699ZM171.515 16.9949C170.561 17.1091 169.855 17.0968 169.211 17.2882C166.58 18.0643 164.6 21.2724 165.081 23.8835C165.346 25.3234 166.694 26.0012 167.918 25.1215C168.775 24.5051 169.61 23.6096 169.976 22.6631C170.655 20.9283 170.982 19.0459 171.515 16.9949Z" fill="#719327"/>
<path d="M191.742 28.8303H187.219C187.594 26.7951 187.966 24.8214 188.317 22.846C188.527 21.6677 188.793 20.4877 188.866 19.299C188.897 18.7564 188.67 17.9381 188.268 17.7046C187.815 17.4429 186.935 17.5114 186.417 17.7643C184.965 18.4666 184.253 19.7977 183.922 21.2639C183.36 23.7433 182.884 26.2385 182.357 28.8039H177.79C178.119 27.0585 178.447 25.3465 178.766 23.6327C179.304 20.7336 179.849 17.838 180.36 14.9302C180.462 14.3454 180.66 14.0627 181.345 14.1031C182.34 14.161 183.344 14.1171 184.416 14.1171C184.354 14.7704 184.294 15.4183 184.233 16.1031C185.11 15.543 185.901 14.96 186.765 14.5017C187.96 13.8678 189.251 13.5921 190.636 13.8485C192.421 14.1804 193.624 15.3691 193.6 17.1146C193.557 18.6592 193.404 20.1993 193.142 21.7239C192.813 23.7995 192.361 25.8557 191.956 27.9189C191.901 28.2262 191.815 28.53 191.742 28.8303Z" fill="#719327"/>
<path d="M113.368 28.8303H108.86C109.788 23.9137 110.703 19.0743 111.635 14.1418H115.457C115.389 14.8055 115.321 15.4868 115.239 16.3121C115.55 16.0452 115.766 15.8626 115.971 15.6765C117.111 14.6462 118.555 13.98 120.106 13.7695C122.74 13.4183 124.761 14.9302 124.715 17.4781C124.684 19.1884 124.307 20.8934 124.053 22.5967C123.897 23.6362 123.687 24.6687 123.489 25.703C123.291 26.7372 123.093 27.7627 122.887 28.8338H118.276C118.561 27.3149 118.856 25.8487 119.11 24.3632C119.409 22.6371 119.742 20.911 119.912 19.1708C119.963 18.6528 119.661 17.7836 119.275 17.6238C118.739 17.4026 117.871 17.5255 117.32 17.81C116.085 18.4491 115.382 19.6028 115.067 20.8811C114.518 23.1235 114.082 25.3922 113.602 27.6503C113.529 28.0208 113.456 28.3949 113.368 28.8303Z" fill="#719327"/>
<path d="M97.5471 23.241C97.5068 24.5931 98.1255 25.3376 99.4252 25.6343C101.062 26.0066 102.632 25.6501 104.201 25.2603C104.49 25.1866 104.776 25.0953 105.136 24.9917C105.213 25.9557 105.319 26.853 105.319 27.752C105.295 27.8959 105.235 28.0322 105.145 28.1497C105.055 28.2672 104.937 28.3626 104.801 28.4281C102.142 29.4254 99.4014 29.6836 96.6721 28.7986C94.5103 28.0962 93.2546 26.5053 93.0807 24.3455C92.8153 21.0372 93.7965 18.075 96.4378 15.808C98.5704 13.9766 101.124 13.376 103.928 13.9204C105.858 14.2944 107.322 15.7694 107.551 17.4411C107.823 19.4516 107.036 20.9775 105.171 21.9714C103.507 22.8494 101.682 23.1549 99.8096 23.2357C99.0554 23.2673 98.2976 23.241 97.5471 23.241ZM98.0267 20.1891C99.5606 19.9749 100.888 19.8379 102.191 19.5868C102.791 19.4727 103.333 19.1198 103.289 18.3787C103.288 18.068 103.173 17.7675 102.966 17.5288C102.759 17.2901 102.471 17.128 102.153 17.0705C101.833 16.9881 101.499 16.969 101.171 17.0144C99.449 17.3076 98.6472 18.4841 98.0267 20.1891Z" fill="#719327"/>
<path d="M81.2995 23.2374C81.3965 24.7335 81.9804 25.3761 83.3387 25.6466C84.9861 25.9732 86.5475 25.6308 88.1162 25.2427C88.3743 25.1795 88.6288 25.1075 88.982 25.0127C89.0443 26.0504 89.123 27.0057 89.1358 27.9592C89.1358 28.1084 88.8649 28.3314 88.6727 28.4034C86.0752 29.3762 83.4119 29.6554 80.7156 28.8705C78.4238 28.2032 76.9979 26.3419 76.9063 24.0328C76.7434 19.9731 78.1877 16.6807 82.0317 14.656C82.9411 14.1691 83.9443 13.8647 84.9803 13.7614C86.0163 13.6582 87.0633 13.7582 88.0576 14.0555C89.7691 14.5366 90.9333 15.6095 91.2592 17.3198C91.6143 19.1811 91.0102 20.7316 89.3134 21.801C87.708 22.8124 85.8849 23.1303 84.005 23.2286C83.13 23.276 82.2532 23.2374 81.2995 23.2374ZM81.8852 20.1539C83.1995 19.9941 84.4607 19.9046 85.6945 19.671C86.7928 19.4621 87.1589 18.9318 86.9758 18.1205C86.8074 17.3778 85.9672 16.8791 85.074 16.988C83.5931 17.1688 82.3355 18.3646 81.8907 20.1539H81.8852Z" fill="#719327"/>
<path d="M196.207 25.2446C197.739 25.5115 199.122 25.803 200.525 25.9751C201.229 26.0612 201.973 25.8961 202.221 25.0971C202.478 24.2701 201.855 23.868 201.251 23.5063C200.481 23.0374 199.657 22.6388 198.921 22.1261C196.413 20.3701 196.377 16.9846 198.817 15.1356C200.955 13.5166 205.207 13.2462 207.739 14.6088C207.349 15.5957 206.953 16.5931 206.565 17.5764C205.742 17.3692 204.993 17.0953 204.222 17.0092C203.561 16.9357 202.892 16.9864 202.251 17.1585C201.396 17.4008 201.259 18.2314 201.929 18.8038C202.309 19.0959 202.712 19.3589 203.135 19.5905C203.647 19.9065 204.165 20.2138 204.683 20.5211C208.101 22.5598 207.297 27.1692 203.873 28.5985C201.182 29.7241 198.458 29.4607 195.787 28.451C195.604 28.3843 195.421 27.991 195.472 27.7996C195.687 26.8988 195.978 26.0208 196.207 25.2446Z" fill="#719327"/>
<path d="M155.921 28.8425H151.257C152.692 21.6712 154.116 14.5578 155.551 7.39003H160.193C158.768 14.5543 157.347 21.6888 155.921 28.8425Z" fill="#719327"/>
<path d="M75.6415 18.0927C72.3247 18.1699 70.7303 19.4974 70.0402 22.7143C69.8187 23.7433 69.6522 24.7828 69.4563 25.8171C69.2732 26.8162 69.0737 27.8136 68.876 28.8391H64.4225C64.719 27.2587 65.0375 25.7627 65.2773 24.2473C65.774 21.1322 66.2432 18.0136 66.6849 14.8915C66.7582 14.3648 66.8845 14.1031 67.4977 14.1277C68.5246 14.1681 69.5533 14.1382 70.6736 14.1382C70.5766 15.0882 70.4905 15.9363 70.3715 17.0672C71.9091 14.8564 73.747 13.636 76.4488 13.7168C76.1742 15.2094 75.9106 16.6299 75.6415 18.0927Z" fill="#719327"/>
</svg>
