<svg width="420" height="444" viewBox="0 0 420 444" fill="none" xmlns="http://www.w3.org/2000/svg">
<path d="M247.022 220.903C278.227 220.699 304.756 230.358 330.055 244.558C355.856 259.057 382.111 272.859 408.13 287.004L419.281 293.066C417.57 296.329 416.597 298.604 415.28 300.667C392.279 336.89 371.156 374.308 345.751 408.95C317.471 447.464 260.417 459.989 214.766 440.802C195.9 432.878 177.741 423.155 158.168 413.63C168.026 401.25 175.938 390.367 184.922 380.315C194.343 369.807 201.085 369.13 213.969 375.118C221.1 378.449 228.379 381.711 235.617 384.654C258.633 394.065 279.09 390.151 294.425 371.073C307.873 354.343 319.158 336.065 331.236 318.689C288.557 283.949 239.775 282.983 201.816 311.099C186.48 322.731 173.335 336.713 162.934 352.458C139.044 388.198 117.58 425.356 95.0475 461.933C81.9385 483.313 67.0147 487.704 43.6765 476.927C35.251 473.041 27.405 468.081 18.1918 463.072L24.6037 452.614C41.3294 425.335 58.3516 398.217 74.6454 370.654C75.6321 368.597 76.1289 366.362 76.1009 364.106C76.0729 361.849 75.5208 359.625 74.4834 357.59C59.0691 333.803 42.7012 310.539 26.9577 286.945C1.27201 248.567 -8.24447 207.766 9.54541 164.219C19.9895 138.586 35.3656 115.486 59.9882 99.4468C90.8045 79.2823 122.53 60.2574 153.141 39.7828C170.615 28.0944 186.636 14.4752 204.586 0.763178C202.711 0.339134 203.697 0.279513 204.1 0.697088C247.945 46.8629 232.34 57.1362 195.618 82.3763C172.908 97.9172 148.327 111.051 126.317 127.344C111.474 138.384 98.4002 151.381 87.4982 165.934C72.6174 185.905 71.0057 209.343 76.9445 232.891C82.4745 254.828 94.9698 273.53 108.881 292.803C131.735 278.359 152.832 263.256 167.348 241.945C175.536 229.923 175.018 216.021 169.447 202.621C165.416 192.987 161.085 183.412 157.275 173.674C149.265 153.118 153.41 141.8 173.326 130.299C179.952 126.458 187.252 123.579 195.288 119.76C208.684 155.997 245.004 179.911 247.022 220.903Z" fill="white" fill-opacity="0.12"/>
</svg>
