<svg width="64" height="64" viewBox="0 0 64 64" fill="none" xmlns="http://www.w3.org/2000/svg">
<g clip-path="url(#clip0_44_98)">
<path d="M0.711121 24.0046C0.878581 23.1403 1.00386 22.2659 1.22245 21.4144C2.96225 14.5068 9.4753 9.67112 16.6109 9.96857C23.8027 10.2698 29.8735 15.5498 31.0879 22.5608C31.7883 26.5167 30.9028 30.589 28.6226 33.8986C26.3424 37.2082 22.8504 39.4896 18.9004 40.2504C18.2996 40.3678 17.686 40.4253 17.0558 40.5133V46.6346H47.6805V43.9218C47.6805 42.9554 47.6601 41.9878 47.6895 41.0214C47.701 40.6002 47.5616 40.4623 47.1411 40.4202C40.5973 39.7627 35.3179 35.116 33.7749 28.6756C31.7411 20.1863 37.5792 11.4877 46.2002 10.1741C54.4531 8.91284 61.9057 14.0409 63.6711 22.2033C65.4799 30.5649 59.6098 39.0427 51.132 40.3116C49.6811 40.5299 49.6811 40.5299 49.6811 42.0248C49.6811 43.3627 49.7016 44.7056 49.6709 46.0358C49.6581 46.5465 49.7987 46.706 50.3241 46.7009C52.7337 46.6754 55.1434 46.6843 57.5543 46.7009C57.833 46.7009 58.2088 46.7009 58.3686 46.8631C58.6102 47.112 58.8735 47.5448 58.8122 47.8307C58.7431 48.1511 58.3392 48.4192 58.0452 48.663C57.9442 48.7473 57.7269 48.6937 57.562 48.6937C39.0689 48.6937 20.5716 48.6975 2.06998 48.7052C1.43849 48.7001 0.992352 48.5086 0.711121 47.9494V47.3328C1.06522 46.8018 1.5676 46.6754 2.18886 46.678C6.24754 46.6997 10.3049 46.678 14.3623 46.6997C14.857 46.6997 15.0462 46.5873 15.036 46.055C15.0028 44.3954 15.0092 42.7231 15.036 41.0572C15.036 40.6065 14.8992 40.4597 14.4518 40.4189C8.32098 39.8419 3.06451 35.4874 1.35028 29.5398C1.06266 28.539 0.919487 27.4973 0.711121 26.476V24.0046ZM17.0289 38.4044C22.3812 38.2589 28.7281 33.6989 29.2573 26.2169C29.8275 18.1744 23.4001 12.0111 16.1226 11.9907C8.65462 11.9702 2.54935 18.1183 2.73854 25.4599C2.93924 33.2764 9.36409 38.218 15.0245 38.4121V37.8121C15.0245 36.0836 15.0028 34.3564 15.0373 32.6292C15.0475 32.1339 14.8711 31.8964 14.4429 31.6985C13.4534 31.2415 12.4794 30.75 11.5155 30.2432C10.9671 29.956 10.7971 29.3841 11.0489 28.8811C11.3007 28.3782 11.8555 28.2007 12.4218 28.4624C13.061 28.7547 13.6746 29.0841 14.3022 29.393C14.5132 29.4964 14.7292 29.5884 15.0347 29.7262C15.0347 28.8135 15.0117 28.0143 15.0424 27.2177C15.0641 26.6675 15.4834 26.3126 16.0178 26.3101C16.267 26.3025 16.5096 26.3911 16.6951 26.5575C16.8805 26.724 16.9946 26.9554 17.0136 27.2037C17.0296 27.4293 17.0334 27.6556 17.0251 27.8816V31.4024C17.8649 30.7756 18.5808 30.2369 19.3018 29.7058C19.9409 29.236 20.4932 29.2501 20.8831 29.7377C21.2729 30.2254 21.1502 30.8292 20.5098 31.3156C19.4769 32.0981 18.4325 32.8679 17.4035 33.6555C17.2526 33.7704 17.0481 33.9504 17.0455 34.1036C17.0187 35.5334 17.0289 36.9683 17.0289 38.4044ZM49.6849 38.4197C55.6662 38.1542 61.9402 32.97 61.9568 25.2569C61.9735 17.5438 55.4476 11.5005 47.7611 12.0175C40.7648 12.4898 34.7695 18.5829 35.4662 26.4799C35.7909 30.1539 37.4552 33.1858 40.3123 35.5296C42.4317 37.267 44.8721 38.2346 47.6805 38.4657C47.6805 36.5227 47.6499 34.6538 47.6972 32.7875C47.7125 32.1773 47.5195 31.8709 46.9698 31.6296C46.0098 31.2096 45.0791 30.722 44.1575 30.2254C43.9279 30.1084 43.7526 29.9071 43.6686 29.6637C43.5845 29.4204 43.5983 29.154 43.7069 28.9205C43.8155 28.6871 44.0105 28.5048 44.2509 28.4119C44.4914 28.3191 44.7585 28.323 44.9961 28.4228C45.3016 28.5428 45.5918 28.7011 45.8909 28.8467C46.4661 29.1301 47.0414 29.4186 47.6396 29.7173C47.658 29.6398 47.6721 29.5614 47.6818 29.4824C47.6818 28.8441 47.6818 28.2058 47.6882 27.5675C47.6882 26.7454 48.0538 26.2986 48.7006 26.305C49.3475 26.3114 49.6824 26.7441 49.6875 27.5816C49.6875 28.3845 49.6875 29.1862 49.6875 29.9879V31.3922C50.5478 30.7539 51.265 30.2037 51.9885 29.6701C52.6123 29.2105 53.1939 29.2411 53.5672 29.7364C53.9405 30.2318 53.7973 30.8228 53.2016 31.2747C52.1687 32.0585 51.1243 32.8258 50.0966 33.616C49.9304 33.7436 49.7131 33.9441 49.7131 34.1164C49.6709 35.5462 49.6849 36.9619 49.6849 38.4236V38.4197Z" fill="#719327"/>
<path d="M0.711121 62.6379C1.05115 62.0954 1.5497 61.9256 2.17097 61.9639C2.70147 61.9984 3.23709 61.9562 3.76759 61.9856C4.39141 62.0201 4.79025 62.4413 4.77747 62.9954C4.76468 63.5494 4.34667 63.9554 3.72796 63.9809C3.19618 64.0026 2.66056 63.9579 2.13134 63.9949C1.49218 64.0396 1.01664 63.8239 0.711121 63.2558L0.711121 62.6379Z" fill="#719327"/>
<path d="M53.5507 59.9086C52.2659 59.878 51.0111 59.5152 49.9088 58.8554C47.7254 57.5418 45.5893 57.5788 43.3753 58.8465C40.8186 60.3107 38.1776 60.3069 35.6133 58.8465C33.3813 57.5699 31.2568 57.5992 29.0222 58.8899C26.4912 60.3516 23.8553 60.3337 21.3267 58.8528C19.1191 57.5622 17.0175 57.5609 14.8073 58.8528C12.2366 60.3541 9.58662 60.3209 7.00186 58.8375C6.01499 58.2707 5.00512 57.8941 3.8623 57.8597C3.16305 57.838 2.78083 57.4499 2.7885 56.8499C2.79617 56.2499 3.22058 55.8644 3.94922 55.8631C5.27526 55.8544 6.57645 56.2223 7.7011 56.9239C9.85891 58.2503 11.9771 58.2005 14.1643 56.9239C16.7376 55.4265 19.3965 55.4291 21.9685 56.9303C24.1339 58.1929 26.2176 58.2069 28.3844 56.961C30.9845 55.4597 33.6498 55.4469 36.255 56.9354C38.446 58.1865 40.5502 58.1775 42.7412 56.9252C45.3221 55.4495 47.9823 55.461 50.5581 56.9393C52.7709 58.2069 54.9172 58.2158 57.0891 56.878C58.2026 56.1936 59.489 55.8419 60.7962 55.8644C61.4865 55.8644 61.902 56.2295 61.925 56.8218C61.948 57.4141 61.5671 57.8367 60.8819 57.8584C59.767 57.8999 58.6828 58.2341 57.7385 58.8273C56.4845 59.5716 55.1588 59.9086 53.5507 59.9086Z" fill="#719327"/>
<path d="M53.8242 54.8111C52.3656 54.7728 51.0912 54.4715 49.9394 53.7732C47.7394 52.4405 45.5931 52.48 43.3509 53.7604C40.8173 55.2106 38.1839 55.2119 35.6452 53.7604C33.3889 52.4698 31.258 52.4979 28.9979 53.8013C26.4924 55.2477 23.8629 55.2336 21.3561 53.7681C19.1267 52.4647 17.0098 52.4558 14.7804 53.7617C12.2544 55.2374 9.63515 55.217 7.08234 53.7809C6.03795 53.1936 4.98333 52.7596 3.76893 52.7596C3.6341 52.7651 3.49963 52.742 3.37445 52.6916C3.24928 52.6413 3.13626 52.5649 3.04292 52.4676C2.94958 52.3703 2.87804 52.2542 2.83306 52.1272C2.78809 52.0001 2.7707 51.865 2.78206 51.7307C2.79996 51.1741 3.17834 50.8039 3.78555 50.7809C5.15364 50.7224 6.50721 51.0808 7.66653 51.8085C9.83968 53.1579 11.9732 53.0992 14.186 51.8149C16.7145 50.3456 19.353 50.3201 21.8815 51.7894C24.1134 53.0864 26.2278 53.1145 28.4623 51.8239C30.9691 50.3788 33.5948 50.3341 36.1105 51.769C38.4115 53.0813 40.5744 53.08 42.8741 51.7626C45.3029 50.3737 47.8787 50.3392 50.3024 51.7179C52.6942 53.0787 54.9389 53.1515 57.2744 51.6822C58.338 51.0132 59.5511 50.7477 60.8166 50.7783C61.5095 50.7949 61.9134 51.1524 61.9211 51.7524C61.9288 52.3524 61.5287 52.7507 60.8499 52.7647C59.7747 52.7902 58.727 53.1089 57.8203 53.6864C56.6179 54.4229 55.2347 54.8122 53.8242 54.8111Z" fill="#719327"/>
<path d="M34.8845 63.9871H7.32768C6.3357 63.9871 5.85122 63.6667 5.82949 63.0016C5.80775 62.311 6.29991 61.9714 7.33663 61.9714H62.4541C62.6601 61.9659 62.8663 61.9731 63.0715 61.9931C63.6199 62.0633 63.9868 62.4667 63.9829 62.9812C63.9786 63.2309 63.8822 63.4702 63.7121 63.6532C63.542 63.8363 63.3103 63.9502 63.0613 63.9731C62.8355 63.9912 62.6088 63.9959 62.3825 63.9871H34.8845Z" fill="#719327"/>
<path d="M61.916 48.6837C61.5657 48.6837 61.2142 48.7054 60.8665 48.6773C60.6063 48.6631 60.3621 48.5474 60.1864 48.3553C60.0106 48.1631 59.9175 47.9097 59.9269 47.6496C59.9316 47.3998 60.0334 47.1615 60.211 46.9854C60.3885 46.8093 60.6278 46.7092 60.878 46.7062C61.5977 46.6782 62.3199 46.6769 63.0396 46.7062C63.2902 46.7103 63.5292 46.8125 63.705 46.9909C63.8807 47.1693 63.9792 47.4096 63.9792 47.6598C63.9858 47.9207 63.8898 48.1737 63.7118 48.3646C63.5337 48.5555 63.2878 48.6692 63.0269 48.6811C62.6587 48.7054 62.2867 48.6837 61.916 48.6837Z" fill="#719327"/>
</g>
<defs>
<clipPath id="clip0_44_98">
<rect width="64" height="64" fill="white"/>
</clipPath>
</defs>
</svg>
