<svg width="350" height="427" viewBox="0 0 350 427" fill="none" xmlns="http://www.w3.org/2000/svg">
<path d="M206.041 194.546C232.076 194.365 254.209 202.923 275.317 215.506C296.844 228.352 318.749 240.581 340.457 253.114L349.761 258.486C348.333 261.377 347.522 263.392 346.423 265.22C327.233 297.315 309.609 330.468 288.412 361.163C264.818 395.288 217.216 406.385 179.128 389.385C163.388 382.364 148.237 373.748 131.907 365.31C140.132 354.34 146.733 344.698 154.228 335.791C162.089 326.481 167.714 325.881 178.463 331.186C184.413 334.137 190.486 337.028 196.525 339.635C215.727 347.974 232.795 344.506 245.59 327.602C256.81 312.779 266.226 296.584 276.302 281.188C240.694 250.408 199.994 249.552 168.324 274.463C155.528 284.77 144.561 297.158 135.884 311.109C115.951 342.776 98.0431 375.699 79.2439 408.107C68.3067 427.051 55.8553 430.942 36.3836 421.393C29.354 417.949 22.8079 413.555 15.121 409.117L20.4706 399.851C34.4253 375.681 48.6275 351.653 62.2218 327.231C63.0451 325.409 63.4595 323.428 63.4362 321.429C63.4128 319.429 62.9522 317.459 62.0866 315.656C49.2261 294.579 35.5699 273.967 22.4347 253.061C1.00437 219.057 -6.9355 182.906 7.90709 144.322C16.6209 121.61 29.4496 101.143 49.9929 86.9315C75.7038 69.0651 102.173 52.2083 127.713 34.0671C142.292 23.7108 155.659 11.6436 170.635 -0.505733C169.071 -0.881452 169.893 -0.934277 170.229 -0.564288C206.81 40.3403 193.791 49.4428 163.152 71.8065C144.205 85.5763 123.696 97.2133 105.333 111.649C92.949 121.431 82.0411 132.947 72.9452 145.842C60.5298 163.536 59.1851 184.303 64.14 205.168C68.7538 224.605 79.1791 241.176 90.7856 258.253C109.854 245.454 127.455 232.072 139.566 213.191C146.398 202.538 145.966 190.22 141.317 178.348C137.954 169.811 134.341 161.328 131.162 152.7C124.479 134.486 127.937 124.458 144.554 114.267C150.082 110.864 156.173 108.314 162.877 104.93C174.054 137.037 204.357 158.225 206.041 194.546Z" fill="white" fill-opacity="0.08"/>
</svg>
