<svg width="22" height="20" viewBox="0 0 22 20" fill="none" xmlns="http://www.w3.org/2000/svg">
<path d="M9.18497 2.9216C9.96894 1.22775 10.3609 0.380822 11 0.380822C11.6391 0.380822 12.0311 1.22775 12.815 2.9216L13.9239 5.31747C14.153 5.81249 14.2676 6.06 14.478 6.2129C14.6885 6.36581 14.9593 6.39828 15.5009 6.4632L18.1221 6.77744C19.9753 6.99961 20.902 7.11069 21.0994 7.71849C21.2969 8.3263 20.6126 8.96081 19.2439 10.2298L17.3079 12.0248C16.908 12.3957 16.708 12.5811 16.6276 12.8285C16.5472 13.0759 16.6 13.3435 16.7056 13.8786L17.2168 16.4687C17.5781 18.2999 17.7588 19.2155 17.2418 19.5911C16.7248 19.9667 15.9098 19.512 14.28 18.6024L11.9746 17.3159C11.4983 17.0501 11.2601 16.9172 11 16.9172C10.7399 16.9172 10.5017 17.0501 10.0254 17.3159L7.72002 18.6024C6.09016 19.512 5.27523 19.9667 4.7582 19.5911C4.24117 19.2155 4.42186 18.2999 4.78325 16.4687L5.2944 13.8786C5.40002 13.3435 5.45282 13.0759 5.37243 12.8285C5.29204 12.5811 5.09205 12.3957 4.69205 12.0248L2.75611 10.2298C1.38742 8.96081 0.703074 8.3263 0.900562 7.71849C1.09805 7.11069 2.02465 6.99961 3.87786 6.77744L6.49913 6.4632C7.04072 6.39828 7.31151 6.36581 7.52197 6.2129C7.73243 6.06 7.84699 5.81249 8.0761 5.31747L9.18497 2.9216Z" fill="#C2C5C1"/>
</svg>
