<svg width="16" height="16" viewBox="0 0 16 16" fill="none" xmlns="http://www.w3.org/2000/svg">
<path d="M11.3577 0H4.65032C1.73687 0 0 1.736 0 4.648V11.344C0 14.264 1.73687 16 4.65032 16H11.3497C14.2631 16 16 14.264 16 11.352V4.648C16.008 1.736 14.2711 0 11.3577 0ZM8.00399 11.104C6.29113 11.104 4.89844 9.712 4.89844 8C4.89844 6.288 6.29113 4.896 8.00399 4.896C9.71684 4.896 11.1095 6.288 11.1095 8C11.1095 9.712 9.71684 11.104 8.00399 11.104ZM12.7423 3.904C12.7023 4 12.6463 4.088 12.5743 4.168C12.4942 4.24 12.4062 4.296 12.3101 4.336C12.2141 4.376 12.11 4.4 12.006 4.4C11.7899 4.4 11.5898 4.32 11.4377 4.168C11.3657 4.088 11.3096 4 11.2696 3.904C11.2296 3.808 11.2056 3.704 11.2056 3.6C11.2056 3.496 11.2296 3.392 11.2696 3.296C11.3096 3.192 11.3657 3.112 11.4377 3.032C11.6218 2.848 11.9019 2.76 12.1581 2.816C12.2141 2.824 12.2621 2.84 12.3101 2.864C12.3582 2.88 12.4062 2.904 12.4542 2.936C12.4942 2.96 12.5342 3 12.5743 3.032C12.6463 3.112 12.7023 3.192 12.7423 3.296C12.7824 3.392 12.8064 3.496 12.8064 3.6C12.8064 3.704 12.7824 3.808 12.7423 3.904Z" fill="#719327"/>
</svg>
