<svg width="16" height="16" viewBox="0 0 16 16" fill="none" xmlns="http://www.w3.org/2000/svg">
<path d="M8.16336 5.09706V6.57031C8.23317 6.52682 8.27017 6.51562 8.28623 6.4919C8.83843 5.6749 9.67616 5.29011 10.6535 5.14582C11.8096 4.97385 12.9573 5.01405 14.0387 5.48909C15.0034 5.91143 15.5403 6.67507 15.7253 7.62582C15.8817 8.43967 15.9669 9.26429 15.9801 10.0913C16.0164 11.9816 15.992 13.8726 15.9913 15.7636C15.9913 15.8393 15.9822 15.9151 15.9759 16.0001H12.618C12.618 15.8841 12.618 15.7827 12.618 15.6812C12.618 13.9023 12.6334 12.1233 12.5991 10.3443C12.5796 9.84684 12.4868 9.35433 12.3234 8.88097C12.1056 8.21354 11.5673 7.86433 10.828 7.81492C10.5911 7.79765 10.3529 7.80384 10.1174 7.83337C9.25381 7.95196 8.7379 8.45337 8.55919 9.2315C8.44947 9.73006 8.39264 10.2377 8.38955 10.7469C8.3693 12.3941 8.38187 14.0452 8.38187 15.6944V15.9968H5.05258V5.09706H8.16336Z" fill="#719327"/>
<path d="M0 5.05273H3.36842V16.0001H0V5.05273Z" fill="#719327"/>
<path d="M1.67586 0C2.11983 0.000829505 2.54578 0.175826 2.86223 0.487408C3.17868 0.798991 3.36039 1.22231 3.36834 1.66646C3.37751 2.5708 2.61982 3.34382 1.70108 3.3679C0.792651 3.39142 0 2.6098 0 1.68539C0.00355949 1.24098 0.180997 0.815656 0.494272 0.5006C0.807547 0.185545 1.23172 0.00583534 1.67586 0Z" fill="#719327"/>
</svg>
