<svg width="16" height="12" viewBox="0 0 16 12" fill="none" xmlns="http://www.w3.org/2000/svg">
<path fill-rule="evenodd" clip-rule="evenodd" d="M0.2176 1.23363C4.76837e-08 1.65399 0 2.20399 0 3.30399V8.01828C0 9.11828 4.76837e-08 9.66828 0.2176 10.0886C0.409516 10.4581 0.715605 10.7585 1.092 10.9466C1.52 11.1611 2.08 11.1611 3.2 11.1611H12.8C13.92 11.1611 14.48 11.1611 14.908 10.9466C15.2841 10.7583 15.5899 10.458 15.7816 10.0886C16 9.66828 16 9.11828 16 8.01828V3.30399C16 2.20399 16 1.65399 15.7816 1.23363C15.59 0.863959 15.2842 0.563336 14.908 0.374847C14.48 0.161133 13.92 0.161133 12.8 0.161133H3.2C2.08 0.161133 1.52 0.161133 1.092 0.374847C0.715483 0.563202 0.40938 0.863839 0.2176 1.23363ZM2.1176 1.73256H13.8824C13.9683 1.73246 14.0519 1.75951 14.121 1.80971C14.19 1.85992 14.2407 1.93061 14.2657 2.01133C14.2906 2.09205 14.2884 2.17851 14.2595 2.25792C14.2305 2.33733 14.1763 2.40548 14.1048 2.45228L8.4448 6.17028C8.31317 6.25675 8.15837 6.30292 8 6.30292C7.84163 6.30292 7.68683 6.25675 7.5552 6.17028L1.8952 2.45228C1.82374 2.40548 1.76952 2.33733 1.74055 2.25792C1.71158 2.17851 1.70941 2.09205 1.73435 2.01133C1.75929 1.93061 1.81003 1.85992 1.87905 1.80971C1.94807 1.75951 2.03171 1.73246 2.1176 1.73256Z" fill="#719327"/>
</svg>
