<svg width="13" height="14" viewBox="0 0 13 14" fill="none" xmlns="http://www.w3.org/2000/svg">
<path d="M9.06836 8.50119L8.73939 8.84745C8.73939 8.84745 7.95751 9.67066 5.82334 7.42372C3.68919 5.17686 4.47106 4.3537 4.47106 4.3537L4.67819 4.13561C5.18851 3.59837 5.23661 2.73583 4.79136 2.10615L3.88068 0.818076C3.32964 0.0387157 2.26486 -0.0642369 1.63327 0.600707L0.499668 1.79418C0.186498 2.12389 -0.0233652 2.55129 0.00208592 3.02543C0.0671942 4.23842 0.585511 6.84827 3.47776 9.89326C6.54484 13.1223 9.42268 13.2506 10.5995 13.1345C10.9718 13.0978 11.2955 12.897 11.5563 12.6224L12.5823 11.5423C13.2749 10.8131 13.0796 9.56314 12.1935 9.05315L10.8137 8.25893C10.2319 7.92406 9.52307 8.02241 9.06836 8.50119Z" fill="#719327"/>
</svg>
